<svg xmlns="http://www.w3.org/2000/svg" width="25" height="25" fill="none" viewBox="0 0 25 25"><path fill="#000" d="M2.78785 1.10911C1.43188 1.47126 0.345421 2.64194 0.0843342 4.00633C-0.0335759 4.61272 -0.0251538 16.8838 0.0927564 17.3891C0.404376 18.7535 1.63401 19.9579 3.01524 20.2527C3.60479 20.379 15.8759 20.379 16.4149 20.2527C17.7119 19.9579 18.8152 18.9304 19.211 17.6418C19.3626 17.1617 19.3711 16.7743 19.3711 10.7104C19.3711 5.18543 19.3542 4.2253 19.2363 3.79577C18.9078 2.51561 17.8298 1.43757 16.5496 1.10069C15.8253 0.915398 3.48688 0.915397 2.78785 1.10911ZM15.8759 3.36624C16.3138 3.56838 16.7265 3.97264 16.9876 4.4527C17.1308 4.70537 17.1392 5.16016 17.1645 10.5672L17.1897 16.4206L16.9708 16.867C16.8444 17.1112 16.6002 17.4397 16.4065 17.5997C15.7411 18.1724 15.9096 18.1555 9.68559 18.1555C3.3016 18.1555 3.55426 18.1808 2.86364 17.4818C2.16461 16.7912 2.18987 17.0438 2.18987 10.6598C2.18987 4.43586 2.17303 4.6043 2.74573 3.93895C2.90576 3.75366 3.2258 3.501 3.47004 3.38309L3.90799 3.16411H9.67717H15.4548L15.8759 3.36624Z"/><rect width="16" height="16" x="2" y="3" fill="#000"/><path fill="#000" d="M21.965 13.4139C21.9313 20.3201 21.9229 20.7496 21.7713 21.1707C21.5439 21.8192 20.9965 22.4003 20.3985 22.6277C19.9185 22.813 19.9185 22.813 12.5238 22.8299C8.4559 22.8383 5.1123 22.872 5.08704 22.8888C5.07019 22.9141 5.21337 23.1583 5.4155 23.4363C5.86188 24.0342 6.46827 24.4974 7.13362 24.7501C7.61368 24.9354 7.68106 24.9354 13.7871 24.9607C17.1813 24.9691 20.2974 24.9522 20.7186 24.9101C22.0829 24.767 23.102 24.0511 23.6916 22.813L24.0032 22.1982L23.9611 15.3341V8.42797L23.6916 7.86369C23.3884 7.22361 22.8325 6.5751 22.3272 6.29717L21.9903 6.10346L21.965 13.4139Z"/></svg>