<?xml version="1.0" standalone="no"?>
<!DOCTYPE svg PUBLIC "-//W3C//DTD SVG 20010904//EN"
 "http://www.w3.org/TR/2001/REC-SVG-20010904/DTD/svg10.dtd">
<svg version="1.0" xmlns="http://www.w3.org/2000/svg"
 width="512.000000pt" height="512.000000pt" viewBox="0 0 512.000000 512.000000"
 preserveAspectRatio="xMidYMid meet">

<g transform="translate(0.000000,512.000000) scale(0.100000,-0.100000)"
fill="#000000" stroke="none">
<path d="M420 5037 c-139 -47 -235 -129 -295 -249 -67 -137 -63 -4 -61 -2248
l2 -2035 25 -66 c56 -145 133 -236 245 -290 128 -60 136 -61 2319 -62 2146 -2
1987 -7 2119 61 117 61 190 147 245 291 l25 66 2 2035 c2 1699 0 2047 -12
2105 -30 152 -126 286 -251 352 -128 68 49 63 -2232 63 l-2066 -1 -65 -22z
m4178 -367 c18 -11 41 -34 52 -52 19 -32 20 -52 20 -565 0 -292 -3 -538 -6
-547 -5 -14 -62 -16 -531 -16 l-526 0 -51 43 c-66 56 -183 125 -271 161 -38
15 -79 32 -90 36 -44 19 -209 63 -295 79 -214 41 -223 42 -460 38 -241 -4
-292 -10 -468 -57 -167 -44 -363 -156 -446 -255 l-37 -45 -518 0 c-464 0 -520
2 -525 16 -3 9 -6 255 -6 547 0 513 1 533 20 565 11 18 34 41 52 52 33 20 55
20 2043 20 1988 0 2010 0 2043 -20z m-1628 -1280 c211 -35 342 -74 379 -114
l22 -24 -23 -26 c-43 -50 -184 -46 -573 18 -293 47 -305 49 -352 31 -85 -33
-173 -169 -173 -269 0 -71 25 -98 123 -131 124 -42 315 -65 532 -65 416 0 701
108 786 298 l24 52 478 0 477 0 -2 -1310 -3 -1310 -38 -37 -37 -38 -2035 0
-2034 0 -35 34 c-21 20 -38 48 -40 65 -3 17 -7 608 -10 1314 l-6 1282 471 0
470 0 -1 -37 c-1 -56 24 -162 50 -213 34 -67 98 -142 164 -191 33 -24 64 -46
70 -48 6 -2 27 -14 46 -26 62 -38 218 -96 365 -135 57 -15 313 -66 430 -85
237 -38 349 -68 382 -101 51 -51 6 -74 -142 -74 -191 0 -449 50 -683 132 -64
22 -94 23 -133 3 -35 -19 -52 -57 -44 -96 17 -78 289 -242 525 -317 216 -69
322 -87 500 -86 131 0 153 3 229 28 129 43 200 93 247 172 53 89 69 215 38
289 -8 20 -36 59 -61 86 -88 95 -217 155 -473 223 -128 34 -136 36 -340 82
-445 98 -607 169 -661 288 -23 52 -23 90 0 141 50 109 184 169 466 209 64 9
553 -2 625 -14z"/>
</g>
</svg>
